<svg xmlns="http://www.w3.org/2000/svg" width="1200" height="320" viewBox="0 0 1200 320" role="img" aria-labelledby="title desc">
<title id="title">DotaWardMap</title>
<desc id="desc">Ward placement analysis. Clean typography and a schematic coordinate panel with Observer circles and Sentry squares.</desc>
<defs><pattern id="grid" width="38" height="38" patternUnits="userSpaceOnUse"><path d="M38 0H0V38" fill="none" stroke="#283443" stroke-width="1"/></pattern></defs>
<rect width="1200" height="320" rx="14" fill="#111820"/>
<path d="M0 306H1200" stroke="#25313d"/>
<rect x="58" y="52" width="30" height="4" rx="2" fill="#e6b85c"/>
<g font-family="Segoe UI,Arial,sans-serif">
<text x="101" y="59" font-size="13" letter-spacing="2.4" fill="#a9b5c3">WARD PLACEMENT ANALYSIS</text>
<text x="54" y="145" font-size="62" font-weight="700" letter-spacing="-2" fill="#f1f5f9">DotaWardMap</text>
<text x="58" y="188" font-size="21" fill="#a9b5c3">See your warding patterns.</text>
<circle cx="65" cy="252" r="6" fill="#e6b85c"/>
<text x="83" y="258" font-size="15" fill="#c6d0dc">Observer</text>
<rect x="193" y="246" width="12" height="12" rx="1" fill="#50b4d6"/>
<text x="218" y="258" font-size="15" fill="#c6d0dc">Sentry</text>
</g>
<g transform="translate(753 30)">
<rect width="392" height="260" rx="10" fill="#151f2a" stroke="#33414f"/>
<rect x="20" y="20" width="352" height="220" fill="url(#grid)"/>
<path d="M48 219 92 196 121 161 174 153 213 113 263 100 303 58 345 37" fill="none" stroke="#2c4856" stroke-width="21" stroke-linecap="round" stroke-linejoin="round"/>
<path d="M48 219 92 196 121 161 174 153 213 113 263 100 303 58 345 37" fill="none" stroke="#547182" stroke-width="1.5"/>
<g fill="none" stroke="#e6b85c" stroke-opacity=".23" stroke-width="1"><circle cx="108" cy="197" r="24"/><circle cx="216" cy="88" r="29"/><circle cx="277" cy="139" r="21"/></g>
<g fill="#e6b85c" stroke="#17212b" stroke-width="2"><circle cx="101" cy="197" r="6"/><circle cx="114" cy="190" r="5"/><circle cx="208" cy="84" r="7"/><circle cx="221" cy="92" r="5"/><circle cx="277" cy="139" r="6"/><circle cx="320" cy="55" r="5"/></g>
<g fill="#50b4d6" stroke="#17212b" stroke-width="2"><rect x="124" y="168" width="10" height="10" rx="1"/><rect x="173" y="126" width="11" height="11" rx="1"/><rect x="240" y="114" width="10" height="10" rx="1"/><rect x="295" y="83" width="10" height="10" rx="1"/></g>
</g>
</svg>
